<svg width="80" height="75" viewBox="0 0 80 75" fill="none" xmlns="http://www.w3.org/2000/svg">
	<path
		d="M78.5135 49.5101C78.6201 49.6698 78.733 49.8294 78.8616 50.0018C78.9466 50.1367 79.0582 50.2521 79.1895 50.3406C79.3207 50.4291 79.4686 50.4888 79.6238 50.5158C79.7179 50.5158 79.9061 50.5158 79.9751 50.4296C80.1194 50.2221 79.6112 49.7911 79.1157 49.1206C78.9149 49.2515 78.7173 49.3856 78.5135 49.5101Z"
		fill="#1b1b1b" />
	<path
		d="M49.1965 39.5902C48.9016 39.5902 48.7134 40.1808 48.864 40.5161C49.2341 41.3302 49.805 41.9369 50.2942 42.7191C51.1505 44.1143 52.1542 45.7586 52.2765 48.6576C52.5902 55.9722 49.99 71.2464 49.0679 74.9212C48.9236 75.5055 49.9649 72.9257 52.1668 64.3851C54.9049 53.7692 56.3352 43.6003 58.399 31.7584C59.0671 27.9271 59.8136 23.7956 60.5225 18.087C60.8204 15.6892 61.0274 13.4319 61.7771 11.2226C62.2915 9.72196 63.223 6.80379 65.0924 7.00812C66.3031 7.13902 66.7798 9.86244 66.8269 12.0207C66.8705 13.1653 66.8296 14.3115 66.7046 15.4498C66.5823 17.1444 66.2901 18.8219 65.8326 20.456C65.3256 22.2944 64.7086 24.0996 63.9852 25.8613C63.2108 27.5721 62.3406 29.2361 61.3787 30.8452C59.685 33.8081 58.5559 35.8674 58.8162 36.0079C58.9197 36.0622 59.0985 35.9089 59.2208 35.6663C59.5963 34.8782 60.0337 34.1223 60.5287 33.4058C61.5983 31.6722 61.8304 31.3593 62.6616 29.9928C63.1356 29.241 63.566 28.4617 63.9507 27.6589C64.5958 26.3924 65.1523 25.0811 65.6162 23.735C66.2717 21.8193 66.7924 20.5167 67.2409 18.0838C67.6138 16.2572 67.7842 14.3937 67.749 12.5284C67.749 11.8388 67.9404 5.90662 65.2837 5.67674C63.245 5.49795 62.2632 7.23161 61.316 9.50805C60.3688 11.7845 59.9171 14.46 59.6505 16.8514C59.271 20.2102 57.7686 29.7278 57.3891 32.1447C55.4225 44.1718 55.3503 44.8455 54.171 51.2406C53.6974 53.7948 51.3858 65.6782 50.7208 67.2842C51.1725 67.1341 51.9252 61.8309 52.0758 60.7677C52.1511 60.1483 52.4835 58.1146 52.7376 54.9218C52.8756 53.2009 53.3461 49.4686 52.9885 47.4763C52.4835 44.6667 51.9284 43.645 51.047 42.071C50.542 41.1642 49.7297 40.5257 49.3313 39.6509"
		fill="#1b1b1b" />
	<path
		d="M51.1629 47.7988C50.7457 47.7765 50.821 49.1621 49.579 50.5574C49.1948 50.9613 48.738 51.2865 48.2334 51.5152C47.761 51.7075 47.2472 51.7702 46.7435 51.6972C46.0002 51.5726 45.0592 51.3013 44.7111 50.4009C44.2155 49.1238 44.479 46.6398 45.4921 45.3659C46.3358 44.3059 47.6218 43.8558 48.4153 44.6539C48.8011 45.0371 49.2088 45.781 48.5282 46.4163C48.0753 46.8159 47.5964 47.1839 47.0948 47.5178C46.3107 48.0734 45.5266 48.5172 44.8114 49.0599C44.0555 49.6378 43.4878 50.8032 42.779 51.1831C42.6813 51.2362 42.5733 51.2668 42.4627 51.2728C42.3522 51.2787 42.2417 51.2598 42.139 51.2175C42.0364 51.1752 41.9442 51.1104 41.8688 51.0278C41.7935 50.9451 41.7369 50.8467 41.7031 50.7393C41.54 50.2381 41.7031 49.4622 41.7439 48.9386C41.8035 47.8754 42.0011 46.576 41.4804 45.6692C40.8908 44.6412 39.6863 44.2644 38.5227 44.523C36.4275 44.9892 36.0135 47.3071 35.8974 49.1493C35.8253 50.1966 35.8661 51.2119 35.8974 52.2304C35.8974 52.7923 36.807 52.5911 36.7976 52.0292C36.76 49.7496 36.6188 47.47 36.7098 45.1073C36.3961 45.1616 36.1138 45.2286 35.8127 45.2989C35.7782 46.7548 35.8127 48.2139 35.5273 49.6889C35.3673 50.4903 35.0756 52.2846 33.8587 52.4091C32.4912 52.5496 32.4817 50.5478 32.3626 49.5357C32.2528 48.6225 32.1461 47.6998 32.0489 46.7739C32.0489 46.6893 32.0159 46.608 31.957 46.5482C31.8982 46.4883 31.8184 46.4547 31.7352 46.4547C29.7686 46.4834 27.6233 46.8697 26.5349 49.0089C25.6567 50.7266 25.9421 53.2201 27.4758 54.2003C29.0096 55.1805 30.9448 54.5579 32.1116 52.6326C32.6637 51.7227 32.6511 51.8025 32.5602 49.7336C32.51 48.5683 32.4535 47.7318 32.4221 46.378C32.4221 45.7969 31.6882 45.9215 31.6819 46.5025C31.6819 47.968 31.9109 49.459 31.845 50.9245C31.7666 52.6869 29.9631 54.146 28.3948 53.5809C27.0085 53.0828 26.6227 51.2119 27.1653 49.7304C27.3498 49.2483 27.6341 48.8123 27.9989 48.452C28.3637 48.0917 28.8004 47.8156 29.2793 47.6424C30.0537 47.3653 30.8675 47.2196 31.6882 47.2113C31.5753 47.0996 32.165 49.2419 31.8356 49.3026C31.9297 50.6531 31.9172 49.8454 32.0646 51.0746C32.212 52.3038 32.7766 53.4308 33.912 53.3095C35.3234 53.169 36.0009 51.5152 36.2769 50.369C36.7004 48.5906 36.6847 46.8569 36.7286 45.1009C36.7286 44.5167 35.8566 44.7114 35.8316 45.2925C35.7406 47.6615 35.8786 49.9411 35.9162 52.224C36.2299 52.1505 36.5185 52.0803 36.8164 52.0228C36.7555 50.8525 36.7691 49.6793 36.8572 48.5108C36.9701 47.3742 37.1897 45.8927 38.4255 45.4745C39.4574 45.1329 40.5928 45.5 40.8688 46.5951C41.0382 47.2688 40.9284 48.0862 40.919 48.7886C40.919 49.7464 40.6618 51.0873 41.3456 51.7834C41.5851 52.0336 41.9081 52.1832 42.2507 52.2027C42.5933 52.2222 42.9307 52.1102 43.1961 51.8887C43.9018 51.3108 44.4727 50.2572 45.3258 49.6985C46.2385 49.1046 47.2297 48.4501 48.2365 47.6775C49.0708 47.0389 50.3599 46.3206 49.5884 44.6763C48.6254 42.6297 46.0817 43.2076 44.8302 44.8295C43.9802 45.9342 43.7105 47.3997 43.676 48.6832C43.6478 49.7145 44.0963 51.2374 44.7393 51.7993C45.6332 52.5656 47.5026 52.9743 49.0991 52.1186C49.0991 52.1186 50.5889 51.3651 51.4138 49.0025C51.4809 48.8576 51.5172 48.7001 51.5205 48.54C51.5237 48.3799 51.4938 48.2209 51.4326 48.0734C51.3856 47.9872 51.2946 47.8244 51.1723 47.818"
		fill="#1b1b1b" />
	<path
		d="M15.7076 59.877C16.6046 61.2754 17.6773 62.8015 19.4369 63.0346C21.024 63.2453 22.2315 62.0959 22.7208 60.6464C22.9745 59.7553 23.1136 58.8345 23.1349 57.907C23.2101 56.8438 23.2603 55.7775 23.2854 54.7143C23.3387 52.4793 23.2854 50.2668 23.1129 48.0478C23.0721 47.4731 22.172 47.4955 22.2284 48.0734C22.4919 51.4929 22.4919 54.9281 22.2284 58.3476C22.1186 59.7301 21.8458 61.7735 20.2179 62.1311C18.4803 62.5142 17.2633 60.6496 16.4541 59.4012C16.1404 58.9159 15.3908 59.4012 15.7013 59.877"
		fill="#1b1b1b" />
	<path
		d="M22.6675 42.8181C22.6675 42.8788 22.6675 42.866 22.6675 42.8181V42.7479C22.6675 42.6968 22.6863 42.6425 22.6957 42.5914C22.7176 42.4861 22.7427 42.3807 22.7741 42.2722C22.7741 42.2211 22.8086 42.17 22.8243 42.1189C22.84 42.0678 22.8557 42.0359 22.8243 42.0902C22.7929 42.1445 22.8243 42.0551 22.8431 42.0455C22.8839 41.9465 22.9278 41.8507 22.978 41.7549C23.0282 41.6592 23.0783 41.5793 23.1317 41.4931L23.1819 41.4197C23.2069 41.3782 23.2007 41.3942 23.1819 41.4197L23.2791 41.292C23.4164 41.1208 23.5698 40.9636 23.737 40.8227C23.7784 40.7808 23.8112 40.7311 23.8336 40.6763C23.856 40.6215 23.8675 40.5627 23.8675 40.5034C23.8675 40.444 23.856 40.3853 23.8336 40.3305C23.8112 40.2757 23.7784 40.2259 23.737 40.1841C23.6504 40.1039 23.5366 40.0611 23.4196 40.0647C23.3025 40.0682 23.1914 40.1179 23.1097 40.2033C22.3453 40.8696 21.8669 41.8137 21.7767 42.8341C21.7808 42.9532 21.8308 43.0659 21.9159 43.1478C22.001 43.2296 22.1144 43.2741 22.2315 43.2715C22.3474 43.2642 22.4563 43.2123 22.5361 43.1264C22.6159 43.0404 22.6606 42.9268 22.6612 42.8085"
		fill="#1b1b1b" />
	<path
		d="M79.2663 50.3529C79.3034 50.371 79.3423 50.3849 79.3824 50.3944H79.4263H79.4639C79.4747 50.3868 79.4863 50.3804 79.4984 50.3753C79.5724 50.3314 79.6273 50.2607 79.6521 50.1773C79.6831 50.0736 79.701 49.9663 79.7054 49.858C79.7012 49.8388 79.6938 49.8204 79.6835 49.8038C76.176 45.1954 71.3945 41.7603 65.9537 39.9402C60.513 38.12 54.6618 37.9982 49.1525 39.5901C49.0427 39.6221 49.2466 40.7587 49.1525 40.7874C54.4857 39.2475 60.1432 39.3142 65.4399 40.9796C70.7366 42.645 75.4455 45.8376 78.9966 50.1709C79.0773 50.2455 79.1681 50.3079 79.2663 50.3561"
		fill="#1b1b1b" />
	<path
		d="M16.2065 60.6178C16.0654 60.4262 15.9242 60.225 15.7894 60.0016C15.6693 59.8458 15.5824 59.6662 15.5344 59.4744C15.4863 59.2825 15.4781 59.0826 15.5102 58.8873C15.5447 58.7723 15.6106 58.5457 15.7517 58.5042C16.0465 58.4211 16.3257 59.197 16.8903 60.0622C16.6613 60.2442 16.4292 60.4262 16.2065 60.6178Z"
		fill="#1b1b1b" />
	<path
		d="M58.9665 35.366C58.9176 35.4582 58.8736 35.5531 58.8347 35.6501C58.7962 35.7229 58.773 35.8031 58.7665 35.8856C58.76 35.968 58.7705 36.0509 58.7971 36.129C58.8191 36.1769 58.863 36.2631 58.9257 36.2695C59.0512 36.2855 59.1139 35.9502 59.2895 35.548C59.1798 35.4873 59.0731 35.4298 58.9759 35.366"
		fill="#1b1b1b" />
	<path
		d="M34.7747 35.8833C34.2915 37.5178 33.5361 39.0556 32.5415 40.4298C31.6334 41.6648 30.5236 42.7318 29.2607 43.5843C28.025 44.4133 26.6934 45.0835 25.2961 45.5797C23.8904 46.073 22.4391 46.4196 20.9645 46.6142C19.5261 46.8181 18.0759 46.9247 16.6236 46.9335H0V46.4705C0.761492 46.3773 1.50605 46.1741 2.21125 45.8671C2.82686 45.6256 3.38034 45.2445 3.8297 44.7528C4.01254 44.5268 4.13082 44.254 4.17158 43.9642C4.24686 43.5938 4.31272 43.1756 4.37546 42.7126C4.43819 42.2497 4.4821 41.7548 4.51346 41.228C4.54483 40.7012 4.55737 40.1904 4.55737 39.6955C4.55737 39.2645 4.55737 38.677 4.57933 37.9331C4.60129 37.1892 4.61069 36.3782 4.62638 35.497C4.64206 34.6158 4.64833 33.7123 4.64833 32.7832V19.3736C4.64833 18.8149 4.62638 18.2976 4.57933 17.8187C4.547 17.3795 4.48412 16.9431 4.39114 16.5129C4.32567 16.1831 4.18492 15.8736 3.98025 15.6093C3.55357 15.0706 2.98437 14.6673 2.33985 14.4472C1.63799 14.2181 0.914892 14.063 0.181919 13.9842V13.5213C1.45953 13.5213 3.29754 13.5138 5.69593 13.4989C8.09433 13.484 10.9967 13.4755 14.4029 13.4734H17.3199C18.3236 13.4734 19.3241 13.5213 20.3278 13.6139C21.3384 13.7087 22.3428 13.8633 23.3358 14.0768C24.3528 14.2944 25.3457 14.6153 26.2998 15.0346C27.5792 15.5963 28.7872 16.3135 29.8974 17.1706C31.0266 18.0403 32.0187 19.0803 32.8394 20.2548C33.7097 21.5192 34.3855 22.9113 34.8437 24.383C35.3704 26.1184 35.6245 27.9276 35.5964 29.7437C35.6311 31.8156 35.354 33.8808 34.7747 35.8674M29.1697 24.6097C28.6487 22.9601 27.8794 21.4026 26.8894 19.993C25.9411 18.6336 24.7747 17.4464 23.4393 16.481C22.1359 15.5364 20.6405 14.9024 19.0638 14.626C18.4553 14.5004 17.7872 14.394 17.0596 14.3067C16.165 14.2227 15.2668 14.1843 14.3684 14.1918C14.0046 14.1918 13.6094 14.1918 13.1828 14.2141C12.7563 14.2365 12.3422 14.262 11.9282 14.3067C11.5142 14.3514 11.1378 14.3929 10.7897 14.4216C10.5048 14.4426 10.2225 14.4896 9.94593 14.5621C9.79328 16.0797 9.70232 18.1678 9.67305 20.8263C9.64377 23.4848 9.62496 26.6637 9.61659 30.3631V35.7907C9.61659 37.3999 9.63227 38.7142 9.66364 39.7338C9.66364 40.168 9.6856 40.6374 9.72951 41.1482C9.77342 41.659 9.82988 42.1539 9.88947 42.6328C9.94268 43.0756 10.0426 43.5113 10.1874 43.9323C10.2835 44.2503 10.4462 44.5433 10.6642 44.7911C11.2918 45.4196 12.0968 45.8327 12.9664 45.9724C13.8311 46.1379 14.7087 46.2234 15.5885 46.2279C16.3476 46.2279 17.1296 46.1896 17.9347 46.1129C18.6991 46.0443 19.4547 45.8967 20.1898 45.6723C23.4727 44.7145 25.9265 42.851 27.5513 40.0818C29.176 37.3126 29.9894 33.907 29.9915 29.865C29.9938 28.0799 29.7164 26.3059 29.1697 24.6097Z"
		fill="#1b1b1b" />
	<path
		d="M37.9894 33.8432V33.3707C38.9699 33.312 39.9353 33.0965 40.8499 32.7321C41.6215 32.4129 42.1296 32.0329 42.3743 31.6274C42.4616 31.4506 42.5168 31.2591 42.5373 31.0623C42.5844 30.7814 42.622 30.4525 42.6534 30.0758C42.6848 29.699 42.7067 29.3063 42.7224 28.9008C42.7381 28.4953 42.7444 28.0994 42.7444 27.7259C42.7757 26.6914 42.7914 25.6272 42.7914 24.5331V17.1132H24.5494V27.2214C24.5494 28.1282 24.5494 29.0062 24.5933 29.8523C24.6372 30.6983 24.7783 31.289 25.0104 31.6402C25.4069 32.1928 25.9514 32.6173 26.5787 32.863C27.213 33.1332 27.8831 33.3064 28.5673 33.3771V33.8432H14.9422V33.3707C15.7033 33.2464 16.4475 33.0321 17.1597 32.7321C17.7754 32.4972 18.3286 32.1189 18.775 31.6274C18.9333 31.3948 19.0403 31.1302 19.0887 30.8516C19.1721 30.4402 19.2338 30.0245 19.2737 29.6064C19.3176 29.1339 19.3584 28.6262 19.3866 28.0771C19.4149 27.5279 19.4337 27.0043 19.4337 26.5031C19.4337 26.0625 19.4337 25.4686 19.4588 24.7151C19.4839 23.9616 19.487 23.1411 19.5027 22.2471C19.5184 21.3531 19.5278 20.4368 19.5278 19.4982V5.92256C19.5278 5.36064 19.5027 4.83383 19.4588 4.34853C19.419 3.9056 19.3488 3.46605 19.2486 3.03312C19.1802 2.69684 19.0328 2.38243 18.8189 2.1168C18.4012 1.59162 17.8517 1.19117 17.2287 0.957827C16.5339 0.708232 15.8129 0.542147 15.0802 0.46295V0H28.8558V0.469335C28.3891 0.539141 27.9264 0.633992 27.4695 0.75349C26.9891 0.869067 26.5319 1.06778 26.1176 1.34096C25.6972 1.6244 25.3463 2.00234 25.092 2.44565C24.7954 2.99251 24.637 3.60579 24.6309 4.2304C24.5996 5.32871 24.5776 6.51003 24.5619 7.78074C24.5462 9.05146 24.54 10.2647 24.54 11.4237V16.1713H42.782V8.62044C42.782 7.80309 42.7663 6.88039 42.735 5.84593C42.7036 5.24889 42.666 4.63269 42.6189 3.98775C42.5998 3.43463 42.4491 2.89449 42.1798 2.41372C41.6278 1.56764 40.9942 1.04403 40.2979 0.839695C39.6049 0.637997 38.8913 0.519065 38.1713 0.485299V0H52.0661V0.469335C51.3149 0.568616 50.583 0.783942 49.8956 1.10789C49.2322 1.39714 48.681 1.901 48.3274 2.54143C48.1834 2.82809 48.09 3.13823 48.0514 3.45775C47.9886 3.85046 47.9416 4.29106 47.9102 4.77636C47.8789 5.26166 47.8663 5.75335 47.8663 6.25461V21.6245C47.8663 22.5036 47.8736 23.4125 47.8883 24.3511C47.9029 25.2898 47.9102 26.3243 47.9102 27.4545C47.9102 28.3644 47.9353 29.2041 47.9792 29.9704C48.0231 30.7367 48.1423 31.2475 48.3274 31.5444C48.7057 32.1556 49.2745 32.6199 49.9427 32.863C50.6597 33.1217 51.4039 33.2942 52.1602 33.3771V33.8432H37.9894Z"
		fill="#1b1b1b" />
</svg>